<svg xmlns="http://www.w3.org/2000/svg" viewBox="0 0 512 512">
  <defs>
    <!-- Back card - light purple -->
    <linearGradient id="grad1" x1="338.7" y1="219.7" x2="662.6" y2="-18.3" gradientUnits="userSpaceOnUse" gradientTransform="matrix(1.004 0 0 -1.004 0.19 516.56)">
      <stop offset="0" stop-color="#B39DDB"/>
      <stop offset="1" stop-color="#9575CD"/>
    </linearGradient>
    <!-- Second card - medium purple -->
    <linearGradient id="grad2" x1="322.3" y1="198.7" x2="627.3" y2="-63.2" gradientUnits="userSpaceOnUse" gradientTransform="matrix(1.004 0 0 -1.004 0.19 516.56)">
      <stop offset="0" stop-color="#9575CD"/>
      <stop offset="1" stop-color="#7E57C2"/>
    </linearGradient>
    <!-- Third card - brand purple -->
    <linearGradient id="grad3" x1="304.4" y1="179" x2="588.6" y2="-105.3" gradientUnits="userSpaceOnUse" gradientTransform="matrix(1.004 0 0 -1.004 0.19 516.56)">
      <stop offset="0" stop-color="#7E57C2"/>
      <stop offset="1" stop-color="#512DA8"/>
    </linearGradient>
    <!-- Front card - teal (accent color) -->
    <linearGradient id="grad4" x1="228.5" y1="284.5" x2="228.5" y2="-203.5" gradientUnits="userSpaceOnUse" gradientTransform="matrix(1.004 0 0 -1.004 0.19 516.56)">
      <stop offset="0" stop-color="#26A69A"/>
      <stop offset="1" stop-color="#00897B"/>
    </linearGradient>
    <!-- Shadow gradient -->
    <linearGradient id="grad5" x1="184.5" y1="54.4" x2="184.5" y2="7.4" gradientUnits="userSpaceOnUse" gradientTransform="matrix(1.004 0 0 -1.004 0.19 516.56)">
      <stop offset="0" stop-color="#00897B" stop-opacity="0"/>
      <stop offset="1" stop-color="#004D40"/>
    </linearGradient>
    <!-- Corner fold gradient -->
    <linearGradient id="grad6" x1="356.8" y1="71.4" x2="424.3" y2="-7" gradientUnits="userSpaceOnUse" gradientTransform="matrix(1.004 0 0 -1.004 0.19 516.56)">
      <stop offset="0" stop-color="#00897B"/>
      <stop offset="1" stop-color="#004D40"/>
    </linearGradient>
  </defs>
  
  <!-- Back card (light purple) -->
  <path fill="url(#grad1)" d="M453.384,20.5l58.354,381.648c1.887,12.344-6.599,23.894-18.943,25.782l-381.648,58.354c-12.344,1.887-23.894-6.599-25.782-18.943L27.011,85.693c-1.887-12.344,6.599-23.894,18.943-25.782L427.602,1.557C439.946-0.33,451.496,8.156,453.384,20.5z"/>
  
  <!-- Second card (medium purple) -->
  <path fill="url(#grad2)" d="M457.455,50.956l29.261,384.973c0.947,12.452-8.391,23.325-20.842,24.272L80.901,489.462c-12.452,0.947-23.325-8.391-24.272-20.842L27.368,83.647c-0.947-12.452,8.391-23.325,20.842-24.272l384.973-29.261C445.635,29.167,456.509,38.504,457.455,50.956z"/>
  
  <!-- Third card (brand purple) -->
  <path fill="url(#grad3)" d="M459.207,81.633v386.083c0,12.488-10.135,22.622-22.622,22.622H50.502c-12.488,0-22.622-10.135-22.622-22.622V81.633c0-12.488,10.135-22.622,22.622-22.622h386.083C449.073,59.01,459.207,69.146,459.207,81.633z"/>
  
  <!-- Front card (teal - accent) -->
  <path fill="url(#grad4)" d="M314.922,510.62L20.926,488.501c-12.459-0.938-21.798-11.797-20.861-24.256L29.029,79.25c0.938-12.459,11.797-21.798,24.256-20.861l384.996,28.964c12.459,0.938,21.798,11.797,20.862,24.256L436.58,411.51c-0.26,3.452-1.867,6.663-4.474,8.94l-94.716,82.691C331.202,508.541,323.11,511.235,314.922,510.62z"/>
  
  <!-- Text lines (white) -->
  <rect x="74.864" y="201.706" width="334.564" height="25.096" rx="4" fill="#FFFFFF" transform="matrix(-0.9971 -0.0756 0.0756 -0.9971 467.4 446.2)"/>
  <rect x="70.035" y="265.406" width="334.564" height="25.096" rx="4" fill="#FFFFFF" transform="matrix(-0.9971 -0.0756 0.0756 -0.9971 452.94 573.05)"/>
  <rect x="65.323" y="325.808" width="247.628" height="25.096" rx="4" fill="#FFFFFF" transform="matrix(-0.9971 -0.0756 0.0756 -0.9971 352.15 690.04)"/>
  
  <!-- Bottom shadow -->
  <path fill="url(#grad5)" d="M337.387,503.141l33.394-29.155L1.423,446.199l-1.357,18.047c-0.908,12.063,7.835,22.638,19.703,24.138c0.382,0.048,0.769,0.087,1.159,0.116l293.995,22.118C323.11,511.235,331.202,508.541,337.387,503.141z"/>
  
  <!-- Corner fold -->
  <path fill="url(#grad6)" d="M435.019,416.811c0,0-0.808,1.838-3.63,4.265c-1.048,0.902-93.444,81.58-93.444,81.58c-6.542,5.711-15.1,8.559-23.76,7.908l0,0l0,0c7.475,0.562,13.991-5.042,14.553-12.517l4.978-66.171c0.938-12.459,11.797-21.798,24.256-20.861L435.019,416.811z"/>
</svg>
